<?xml version="1.0" encoding="UTF-8"?>
<svg width="28px" height="27px" viewBox="0 0 28 27" version="1.1" xmlns="http://www.w3.org/2000/svg" xmlns:xlink="http://www.w3.org/1999/xlink">
    <g id="Page-1" stroke="none" stroke-width="1" fill="none" fill-rule="evenodd">
        <g id="Verify" transform="translate(-189.000000, -252.000000)">
            <g id="Pop-Up" transform="translate(137.000000, 213.000000)">
                <g id="Close-Ico" transform="translate(52.668500, 39.000000)">
                    <path d="M26.5873034,26.5877338 C26.0319411,27.1374221 25.1371276,27.1374221 24.5811986,26.5877338 L16.4156717,18.4217454 C15.8614428,17.8675236 15.8614428,16.9693215 16.4156717,16.4156664 C16.969334,15.8614445 17.8675476,15.8614445 18.4217766,16.4156664 L26.5873034,24.5816547 C27.1375655,25.1370099 27.1375655,26.0323785 26.5873034,26.5877338" id="Fill-14" fill="var(--color-primary)"></path>
                    <path d="M26.569815,0.430774267 C25.9923064,-0.141430676 25.0618104,-0.141430676 24.4837126,0.430774267 L13.4998527,11.4146341 L2.5154035,0.430774267 C2.22664921,0.141430676 1.84950074,0 1.47235227,0 C1.0946145,0 0.717466034,0.141430676 0.428711737,0.430774267 C-0.142903912,1.00769357 -0.142903912,1.93877885 0.428711737,2.51628744 L11.4137502,13.5007366 L0.428711737,24.4851858 C-0.142903912,25.0626944 -0.142903912,25.9937797 0.428711737,26.5712883 C1.00622033,27.1429039 1.93789491,27.1429039 2.5154035,26.5712883 L26.569815,2.51628744 C26.8591586,2.22753315 27,1.85038468 27,1.47323621 C27,1.09608774 26.8591586,0.71893927 26.569815,0.430774267" id="Fill-15" fill="#121311"></path>
                </g>
            </g>
        </g>
    </g>
</svg>