<svg id="icon-header-bars-new" viewBox="0 0 55 32">
<path style="fill: var(--color-primary, #f39122)" d="M0 28.8c0-1.767 1.916-3.2 4.247-3.2h34.173c2.346 0 4.247 1.42 4.247 3.2 0 1.767-1.916 3.2-4.247 3.2h-34.173c-2.346 0-4.247-1.42-4.247-3.2zM0 16c0-1.767 1.213-3.2 2.726-3.2h43.616c1.505 0 2.726 1.42 2.726 3.2 0 1.767-1.213 3.2-2.726 3.2h-43.616c-1.505 0-2.726-1.42-2.726-3.2zM0 3.2c0-1.767 1.783-3.2 3.945-3.2h47.578c2.179 0 3.945 1.42 3.945 3.2 0 1.767-1.783 3.2-3.945 3.2h-47.578c-2.179 0-3.945-1.42-3.945-3.2z"></path>
</svg>