<svg xmlns="http://www.w3.org/2000/svg" xmlns:xlink="http://www.w3.org/1999/xlink" width="28px" height="24px" viewBox="0 0 28 24" version="1.1">
    <title>B0BE3B4B-4B2C-4110-B18D-16A7C5410984</title>
    <g id="New-Test" stroke="none" stroke-width="1" fill="none" fill-rule="evenodd">
        <g id="Categ-Page----List" transform="translate(-146.000000, -123.000000)" fill-rule="nonzero">
            <g id="Header">
                <g id="list" transform="translate(146.000000, 123.000000)">
                    <path d="M26.3050847,13.559322 L11.8983051,13.559322 C10.9622292,13.559322 10.2033898,12.8004826 10.2033898,11.8644068 C10.2033898,10.9283309 10.9622292,10.1694915 11.8983051,10.1694915 L26.3050847,10.1694915 C27.2411606,10.1694915 28,10.9283309 28,11.8644068 C28,12.8004826 27.2411606,13.559322 26.3050847,13.559322 Z" id="Path" fill="#07C0DE"/>
                    <path d="M26.3050847,23.7288136 L1.89830508,23.7288136 C0.962229238,23.7288136 0.203389831,22.9699742 0.203389831,22.0338983 C0.203389831,21.0978225 0.962229238,20.3389831 1.89830508,20.3389831 L26.3050847,20.3389831 C27.2411606,20.3389831 28,21.0978225 28,22.0338983 C28,22.9699742 27.2411606,23.7288136 26.3050847,23.7288136 Z" id="Path" fill="#333333"/>
                    <path d="M26.3050847,3.38983051 L1.89830508,3.38983051 C0.962229238,3.38983051 0.203389831,2.6309911 0.203389831,1.69491525 C0.203389831,0.758839407 0.962229238,0 1.89830508,0 L26.3050847,0 C27.2411606,0 28,0.758839407 28,1.69491525 C28,2.6309911 27.2411606,3.38983051 26.3050847,3.38983051 Z" id="Path" fill="#333333"/>
                </g>
            </g>
        </g>
    </g>
</svg>