<svg xmlns="http://www.w3.org/2000/svg" xmlns:xlink="http://www.w3.org/1999/xlink" viewBox="0 0 20 20" version="1.1">
    <g stroke="none" stroke-width="1" fill="none" fill-rule="evenodd">
        <g transform="translate(-950.000000, -163.000000)">
            <g transform="translate(148.000000, 38.000000)">
                <g transform="translate(297.000000, 61.000000)">
                    <g transform="translate(0.000000, 49.000000)">
                        <g transform="translate(505.000000, 15.000000)">
                            <rect opacity="0.294252232" x="0" y="0" width="20" height="20"/>
                            <g fill-rule="nonzero">
                                <path d="M14.2391611,15.5649863 C12.7246865,16.7844294 10.806011,17.5 8.75,17.5 C3.91750844,17.5 0,13.5824916 0,8.75 C0,6.17900988 1.11644317,3.78692688 3.02147787,2.13572098 C4.60057419,0.767025087 6.61716309,0 8.75,0 C13.5824916,0 17.5,3.91750844 17.5,8.75 C17.5,9.70344566 17.3471278,10.6373663 17.0506664,11.5246259 C16.715169,12.5287137 16.2074048,13.4438531 15.5655695,14.2397443 L19.7254126,18.3995874 C20.0915291,18.7657039 20.0915291,19.3592961 19.7254126,19.7254126 C19.3592961,20.0915291 18.7657039,20.0915291 18.3995874,19.7254126 L14.2391611,15.5649863 Z M8.75,15.625 C11.7298866,15.625 14.3429983,13.7117008 15.2723115,10.9304214 C15.5049659,10.2341257 15.625,9.50081806 15.625,8.75 C15.625,4.95304234 12.5469577,1.875 8.75,1.875 C7.07263069,1.875 5.49089238,2.47662633 4.24954731,3.55257328 C2.75116264,4.85131162 1.875,6.72857131 1.875,8.75 C1.875,12.5469577 4.95304234,15.625 8.75,15.625 Z" id="Combined-Shape" fill="#222222"/>
                                <path d="M8.75,3.75 C9.26776694,3.75 9.6875,4.16973306 9.6875,4.6875 C9.6875,5.20526694 9.26776694,5.625 8.75,5.625 C7.02411016,5.625 5.625,7.02411016 5.625,8.75 C5.625,9.26776694 5.20526694,9.6875 4.6875,9.6875 C4.16973306,9.6875 3.75,9.26776694 3.75,8.75 C3.75,5.98857625 5.98857625,3.75 8.75,3.75 Z" id="Combined-Shape-path" fill="var(--color-primary)"/>
                            </g>
                        </g>
                    </g>
                </g>
            </g>
        </g>
    </g>
</svg>